<svg width="106" height="114" viewBox="0 0 106 114" fill="none" xmlns="http://www.w3.org/2000/svg">
<path d="M23.7054 25.1707C24.4825 25.1707 25.2279 24.8619 25.7774 24.3124C26.3269 23.7629 26.6356 23.0176 26.6356 22.2404C26.6356 21.4633 26.3269 20.718 25.7774 20.1684C25.2279 19.6189 24.4825 19.3102 23.7054 19.3102C22.9282 19.3102 22.1829 19.6189 21.6334 20.1684C21.0839 20.718 20.7751 21.4633 20.7751 22.2404C20.7751 23.0176 21.0839 23.7629 21.6334 24.3124C22.1829 24.8619 22.9282 25.1707 23.7054 25.1707Z" fill="white"/>
<path fill-rule="evenodd" clip-rule="evenodd" d="M26.8877 1.72861C30.5798 -1.9635 36.8915 0.65028 36.8915 5.87197V10.5193H41.5389C46.7606 10.5193 49.3744 16.8311 45.6823 20.5232L40.4283 25.7771L40.3199 25.8826L50.4468 43.0157C51.6453 45.0437 53.4269 46.6635 55.5595 47.6639C57.6921 48.6643 60.0767 48.999 62.4022 48.6242L99.2647 42.6846C104.041 41.914 107.294 47.3994 104.328 51.2234C101.486 54.8891 100.053 59.5745 99.0186 64.7025C95.1565 83.834 78.9523 98.579 58.8684 101.005V107.217H66.194V113.078H38.3567V107.217H53.0079V101.357C37.1435 101.357 23.0901 93.7177 14.6012 81.9938C7.79128 72.5878 8.89892 60.5005 11.6533 50.4439L13.1038 45.1548C13.8413 42.4632 14.0218 39.6494 13.6342 36.8857L13.4496 36.8915H5.87197C0.65028 36.8915 -1.9635 30.5798 1.72861 26.8877L26.8877 1.72861ZM41.5389 16.3798L37.2432 20.6756L35.1041 17.0626C34.8289 16.602 34.5285 16.1569 34.2045 15.7293C35.0103 16.1454 35.9216 16.3798 36.8915 16.3798H41.5389ZM31.031 10.5193C31.031 11.498 31.2713 12.424 31.6962 13.2327C30.0615 11.9912 28.1622 11.1438 26.1463 10.7567L31.031 5.87197V10.5193ZM5.87197 31.031L10.5457 26.3602C10.6629 26.9697 10.827 27.5792 11.038 28.1887L12.0167 31.031H5.87197ZM16.5791 26.2782C15.981 24.5308 16.0518 22.6237 16.7778 20.9254C17.5039 19.2272 18.8336 17.8583 20.51 17.0833C22.1865 16.3083 24.0907 16.1821 25.8548 16.7292C27.6188 17.2764 29.1175 18.4579 30.0611 20.0456L45.4039 45.9987C47.2018 49.0396 49.874 51.4683 53.0722 52.9684C56.2705 54.4685 59.8464 54.9703 63.3341 54.4085L98.9307 48.674C95.7601 53.2364 94.2745 58.5871 93.2753 63.545C92.4802 67.4652 91.0773 71.237 89.1173 74.7239C88.8414 74.8989 88.5968 75.1188 88.3935 75.3744C82.8465 82.3484 74.6272 86.7057 65.5024 86.7057C49.0638 86.7057 35.4264 72.453 35.4264 54.473C35.4264 53.6958 35.1177 52.9505 34.5682 52.401C34.0186 51.8515 33.2733 51.5427 32.4962 51.5427C31.719 51.5427 30.9737 51.8515 30.4242 52.401C29.8746 52.9505 29.5659 53.6958 29.5659 54.473C29.5659 75.3363 45.483 92.5662 65.5024 92.5662C66.6745 92.5662 67.831 92.5075 68.9718 92.3903C63.9023 94.4511 58.4803 95.506 53.0079 95.4964C39.0511 95.4964 26.7529 88.7832 19.3482 78.5596C14.1734 71.4127 14.6598 61.6433 17.3058 51.994L18.7563 46.702C20.1593 41.5823 19.9847 36.1583 18.2552 31.1395L16.5791 26.2782Z" fill="white"/>
</svg>
