<svg width="1123" height="122" viewBox="0 0 123 122" fill="none" xmlns="http://www.w3.org/2000/svg">
<path d="M33.6596 89.0592V100.907C33.6596 101.87 33.979 102.671 34.6178 103.31C35.2566 103.949 36.0576 104.268 37.0208 104.268C37.9841 104.268 38.7851 103.949 39.4239 103.31C40.0627 102.671 40.3821 101.87 40.3821 100.907V89.0592H52.2301C53.1933 89.0592 53.9943 88.7398 54.6331 88.1011C55.2719 87.4673 55.5913 86.6663 55.5913 85.698C55.5913 84.7297 55.2719 83.9287 54.6331 83.2949C53.9943 82.6612 53.1933 82.3418 52.2301 82.3368H40.3821V70.4888C40.3821 69.5255 40.0627 68.7245 39.4239 68.0857C38.7851 67.4469 37.9841 67.1275 37.0208 67.1275C36.0576 67.1275 35.2566 67.4469 34.6178 68.0857C33.979 68.7245 33.6596 69.5255 33.6596 70.4888V82.3368H21.8116C20.8484 82.3368 20.0473 82.6562 19.4086 83.2949C18.7698 83.9287 18.4504 84.7297 18.4504 85.698C18.4504 86.6663 18.7698 87.4673 19.4086 88.1011C20.0423 88.7398 20.8433 89.0592 21.8116 89.0592H33.6596ZM75.0439 98.565H101.66C102.623 98.565 103.424 98.2456 104.063 97.6068C104.702 96.9731 105.021 96.1721 105.021 95.2038C105.021 94.2354 104.702 93.4344 104.063 92.8007C103.429 92.1619 102.628 91.8425 101.66 91.8425H75.0439C74.0806 91.8425 73.2796 92.1619 72.6408 92.8007C72.002 93.4395 71.6826 94.2405 71.6826 95.2038C71.6826 96.167 72.002 96.968 72.6408 97.6068C73.2796 98.2456 74.0806 98.565 75.0439 98.565ZM75.0439 79.5535H101.66C102.623 79.5535 103.424 79.2341 104.063 78.5953C104.702 77.9616 105.021 77.1606 105.021 76.1922C105.021 75.2239 104.702 74.4229 104.063 73.7892C103.429 73.1504 102.628 72.831 101.66 72.831H75.0439C74.0806 72.831 73.2796 73.1504 72.6408 73.7892C72.002 74.428 71.6826 75.229 71.6826 76.1922C71.6826 77.1555 72.002 77.9565 72.6408 78.5953C73.2796 79.2341 74.0806 79.5535 75.0439 79.5535ZM23.7128 37.3479H50.3289C51.2922 37.3479 52.0932 37.0285 52.732 36.3897C53.3707 35.756 53.6901 34.955 53.6901 33.9866C53.6901 33.0183 53.3707 32.2173 52.732 31.5836C52.0932 30.9499 51.2922 30.6305 50.3289 30.6254H23.7128C22.7495 30.6254 21.9485 30.9448 21.3097 31.5836C20.6709 32.2224 20.3515 33.0234 20.3515 33.9866C20.3515 34.9499 20.6709 35.7509 21.3097 36.3897C21.9485 37.0285 22.7495 37.3479 23.7128 37.3479ZM13.188 121.82C9.68479 121.82 6.76208 120.649 4.41986 118.307C2.07764 115.964 0.903996 113.039 0.898926 109.531V12.4352C0.898926 8.93198 2.07257 6.00927 4.41986 3.66705C6.76715 1.32483 9.68986 0.151188 13.188 0.146118H110.291C113.789 0.146118 116.712 1.31976 119.059 3.66705C121.407 6.01434 122.578 8.93705 122.573 12.4352V109.538C122.573 113.037 121.402 115.959 119.059 118.307C116.717 120.654 113.792 121.825 110.284 121.82H13.188ZM13.188 114.215H110.291C111.457 114.215 112.53 113.729 113.508 112.755C114.486 111.782 114.973 110.707 114.968 109.531V12.4352C114.968 11.2641 114.481 10.1893 113.508 9.21081C112.535 8.23235 111.46 7.74566 110.284 7.75073H13.188C12.0169 7.75073 10.9421 8.23742 9.96362 9.21081C8.98516 10.1842 8.49847 11.259 8.50354 12.4352V109.538C8.50354 110.705 8.99023 111.777 9.96362 112.755C10.937 113.734 12.0093 114.22 13.1804 114.215M88.352 38.846L96.6182 47.1046C97.2722 47.7586 98.0428 48.1109 98.93 48.1616C99.8172 48.2073 100.636 47.8549 101.386 47.1046C102.106 46.3847 102.474 45.5989 102.489 44.7472C102.499 43.8904 102.144 43.0868 101.424 42.3365L93.1201 33.9866L101.386 25.728C102.035 25.069 102.385 24.2984 102.436 23.4162C102.486 22.529 102.137 21.7103 101.386 20.9599C100.636 20.2096 99.84 19.8345 98.9984 19.8345C98.1568 19.8345 97.3634 20.2096 96.6182 20.9599L88.352 29.2185L80.0934 20.9599C79.4343 20.3009 78.6612 19.9485 77.7739 19.9029C76.8867 19.8573 76.068 20.2096 75.3177 20.9599C74.5673 21.7103 74.1947 22.5037 74.1998 23.3402C74.2048 24.1767 74.58 24.9726 75.3253 25.728L83.5839 33.9866L75.2796 42.3365C74.6561 42.9905 74.3189 43.7611 74.2682 44.6483C74.2175 45.5355 74.5699 46.3543 75.3253 47.1046C76.0806 47.8549 76.8741 48.2301 77.7055 48.2301C78.5369 48.2301 79.3329 47.8549 80.0934 47.1046L88.352 38.846Z" fill="white"/>
</svg>
