<svg width="109" height="109" viewBox="0 0 109 109" fill="none" xmlns="http://www.w3.org/2000/svg">
<path d="M109 17.8296C109 20.1714 108.556 22.4422 107.669 24.6421C106.782 26.842 105.487 28.7935 103.784 30.4966L33.6899 100.591L0 109L8.40918 75.3101L78.5034 5.21582C80.2065 3.5127 82.158 2.21761 84.3579 1.33057C86.5578 0.443522 88.8286 0 91.1704 0C93.6187 0 95.925 0.461263 98.0894 1.38379C100.254 2.30632 102.134 3.58366 103.731 5.21582C105.328 6.84798 106.605 8.74626 107.563 10.9106C108.521 13.075 109 15.3813 109 17.8296ZM17.3506 76.002C21.1117 77.2438 24.3405 79.2131 27.0371 81.9097C29.7337 84.6063 31.7207 87.8529 32.998 91.6494L90.5317 34.0625L74.9375 18.4683L17.3506 76.002ZM9.36719 99.6328L26.8774 95.2686C26.5226 93.6364 25.9549 92.0929 25.1743 90.6382C24.3937 89.1834 23.418 87.8883 22.2471 86.7529C21.0762 85.6175 19.7811 84.6595 18.3618 83.8789C16.9425 83.0983 15.3991 82.5129 13.7314 82.1226L9.36719 99.6328ZM95.375 29.2192C96.262 28.3322 97.1136 27.4984 97.9297 26.7178C98.7458 25.9372 99.4731 25.1211 100.112 24.2695C100.75 23.418 101.247 22.4777 101.602 21.4487C101.957 20.4198 102.152 19.2311 102.188 17.8828C102.188 16.3571 101.904 14.9378 101.336 13.625C100.768 12.3122 99.9699 11.1413 98.9409 10.1123C97.9119 9.08333 96.741 8.28499 95.4282 7.71729C94.1154 7.14958 92.6784 6.84798 91.1172 6.8125C89.7689 6.8125 88.598 6.98991 87.6045 7.34473C86.611 7.69954 85.6707 8.21403 84.7837 8.88818C83.8966 9.56234 83.0628 10.2897 82.2822 11.0703C81.5016 11.8509 80.6678 12.7025 79.7808 13.625L95.375 29.2192Z" fill="white"/>
</svg>
