<svg width="87" height="99" viewBox="0 0 87 99" fill="none" xmlns="http://www.w3.org/2000/svg">
<path d="M26.3127 44.7742C27.2546 44.5859 28.0832 44.0312 28.6161 43.232C29.149 42.4329 29.3427 41.4547 29.1544 40.5128C28.9662 39.5709 28.4114 38.7423 27.6123 38.2094C26.8131 37.6765 25.835 37.4829 24.8931 37.6711C20.5327 38.5403 17.2396 41.592 15.4867 45.682C13.7484 49.7284 13.4925 54.7889 14.8493 60.2067C14.9553 60.6776 15.1543 61.1225 15.4347 61.5154C15.715 61.9083 16.0711 62.2411 16.4819 62.4944C16.8928 62.7477 17.3501 62.9163 17.827 62.9904C18.304 63.0644 18.7909 63.0423 19.2592 62.9255C19.7275 62.8087 20.1677 62.5994 20.554 62.31C20.9402 62.0206 21.2647 61.657 21.5085 61.2404C21.7522 60.8238 21.9101 60.3627 21.9731 59.8842C22.0361 59.4056 22.0028 58.9194 21.8751 58.4539C20.8128 54.2143 21.1605 50.8245 22.1407 48.5357C23.1065 46.2855 24.642 45.1122 26.3127 44.7742ZM12.1839 7.03292C11.9776 10.4612 12.4794 13.8952 13.6583 17.1211C14.8371 20.3469 16.6677 23.2954 19.0358 25.7828C14.4358 27.1017 10.3174 29.7273 7.18034 33.3409C4.04325 36.9546 2.02232 41.401 1.36275 46.1407C-0.226623 57.5133 2.10672 69.088 7.97809 78.9566L9.66814 81.8056L9.87577 82.1098L16.7132 91.3133C18.1615 93.2639 20.0174 94.8755 22.1519 96.0357C24.2864 97.1959 26.6482 97.8769 29.0727 98.0314C31.4973 98.1858 33.9263 97.8099 36.1908 96.9299C38.4553 96.0499 40.5007 94.6869 42.1847 92.9358C42.3816 92.731 42.6178 92.5681 42.8792 92.4568C43.1405 92.3456 43.4217 92.2882 43.7057 92.2882C43.9898 92.2882 44.271 92.3456 44.5323 92.4568C44.7937 92.5681 45.0299 92.731 45.2268 92.9358C46.9108 94.6869 48.9562 96.0499 51.2207 96.9299C53.4852 97.8099 55.9142 98.1858 58.3388 98.0314C60.7633 97.8769 63.1251 97.1959 65.2596 96.0357C67.3941 94.8755 69.2501 93.2639 70.6983 91.3133L77.5357 82.105L77.7385 81.8007L79.4334 78.9518C85.3087 69.0863 87.6471 57.5134 86.0632 46.1407C85.5957 42.7896 84.4453 39.5702 82.6833 36.6817C80.9213 33.7932 78.5851 31.2971 75.8194 29.348C73.0537 27.3989 69.9173 26.0382 66.6045 25.3502C63.2917 24.6622 59.8729 24.6616 56.5598 25.3482L47.3804 27.2508H47.3659C47.5108 23.4844 48.0999 19.4282 49.2539 15.9612C50.6543 11.7699 52.5954 9.24931 54.7587 8.35116C55.6455 7.98105 56.349 7.2738 56.7144 6.385C57.0798 5.49619 57.0772 4.49863 56.7071 3.61178C56.337 2.72493 55.6297 2.02142 54.7409 1.65603C53.8521 1.29064 52.8545 1.29328 51.9677 1.66339C46.8879 3.7832 44.0003 8.80989 42.3827 13.6676L42.1606 14.3533C40.9727 12.0547 39.4368 9.95356 37.6071 8.12421C35.103 5.61686 32.0947 3.6702 28.7815 2.41318C25.4683 1.15617 21.9259 0.617501 18.3888 0.832856C16.7746 0.925767 15.2507 1.60789 14.1061 2.74985C12.9614 3.8918 12.2758 5.41414 12.1791 7.0281M19.3883 8.02764C21.8114 7.95771 24.2232 8.38428 26.4753 9.28113C28.7274 10.178 30.7722 11.5261 32.4838 13.2427C34.2003 14.9543 35.5485 16.9991 36.4453 19.2512C37.3422 21.5033 37.7688 23.915 37.6988 26.3381C36.8231 26.3574 35.9471 26.3171 35.0768 26.2174L32.0975 25.5993C29.2678 24.7499 26.6929 23.2119 24.6034 21.1231C22.8868 19.4114 21.5387 17.3667 20.6418 15.1146C19.745 12.8625 19.3184 10.4507 19.3883 8.02764ZM29.3838 32.4368L30.3592 32.6396C31.5181 32.968 32.6931 33.2126 33.8841 33.3736L38.568 34.3393C41.9604 35.0421 45.4608 35.0421 48.8532 34.3393L58.0374 32.4368C60.38 31.9513 62.7974 31.9518 65.1399 32.4384C67.4823 32.925 69.6999 33.8872 71.6554 35.2656C73.6109 36.6439 75.2627 38.409 76.5084 40.4516C77.7541 42.4941 78.5672 44.7707 78.8974 47.1402C80.2534 56.8832 78.2487 66.7974 73.214 75.2482L71.6157 77.9378L64.8893 86.9964C64.0684 88.1022 63.0164 89.0157 61.8064 89.6733C60.5964 90.3309 59.2576 90.7168 57.8832 90.8042C56.5088 90.8915 55.1319 90.6782 53.8484 90.179C52.5649 89.6798 51.4057 88.9069 50.4515 87.9139C49.5791 87.006 48.5324 86.2837 47.374 85.7903C46.2157 85.2969 44.9696 85.0426 43.7106 85.0426C42.4515 85.0426 41.2055 85.2969 40.0471 85.7903C38.8888 86.2837 37.842 87.006 36.9697 87.9139C36.0155 88.9069 34.8562 89.6798 33.5727 90.179C32.2892 90.6782 30.9123 90.8915 29.538 90.8042C28.1636 90.7168 26.8248 90.3309 25.6148 89.6733C24.4048 89.0157 23.3527 88.1022 22.5318 86.9964L15.8054 77.9378L14.2071 75.2482C9.17408 66.7968 7.17116 56.8827 8.52856 47.1402C8.85886 44.7712 9.67186 42.4951 10.9172 40.453C12.1626 38.4108 13.8139 36.6459 15.7688 35.2676C17.7238 33.8894 19.9408 32.927 22.2827 32.44C24.6246 31.9531 27.0415 31.952 29.3838 32.4368Z" fill="white"/>
</svg>
