<svg width="128" height="128" viewBox="0 0 128 128" fill="none" xmlns="http://www.w3.org/2000/svg">
<path d="M93.9686 71.4505C93.9686 71.4505 88.5029 68.6876 83.0492 68.6876C74.8566 68.6876 63.9372 79.7692 63.9372 96.4066C63.9372 113.038 78.8929 124.126 93.9686 124.126C109.044 124.126 124 113.038 124 96.4066C124 79.7752 113.081 68.6816 104.888 68.6816C99.4283 68.6816 93.9686 71.4565 93.9686 71.4565C93.9686 63.1438 99.4343 52.0562 110.348 52.0562M55.8588 22.0188C61.2404 22.0188 65.607 17.9826 65.607 13.0094C65.607 8.03622 61.2344 4 55.8588 4H23.3648C17.9832 4 13.6227 8.03622 13.6227 13.0094C13.6227 17.9826 17.9832 22.0188 23.3709 22.0188M58.946 21.5563C64.688 32.1634 69.3969 41.7374 72.28 52.0502C72.5162 52.8911 72.7384 53.738 72.9466 54.5909M54.4954 124.126H29.8696C8.36117 124.126 3.87448 119.981 3.87448 100.1V74.7359C3.87448 54.3146 10.4694 39.3529 20.1215 21.5083" stroke="white" stroke-width="7" stroke-linecap="round" stroke-linejoin="round"/>
</svg>
