<svg width="221" height="221" viewBox="0 0 221 221" fill="none" xmlns="http://www.w3.org/2000/svg">
<path d="M110.5 211.792C106.172 211.792 101.936 211.332 97.7005 210.411C65.3793 203.505 44.8447 171.644 51.7509 139.323C54.053 128.457 59.3938 118.512 67.0368 110.501C68.5459 108.909 69.3871 106.8 69.3871 104.607C69.3871 102.414 68.5459 100.305 67.0368 98.7139C47.8834 74.9564 51.5668 40.1489 75.3243 20.9955C99.0818 1.84221 133.889 5.59001 153.043 29.3751C169.341 49.5414 169.341 78.2714 153.043 98.7139C150.372 102.489 150.741 107.738 153.963 111.053C176.524 135.179 175.327 173.117 151.109 195.678C140.117 206.021 125.594 211.784 110.5 211.792ZM110.5 27.6255C102.121 27.6255 93.9251 30.4801 87.4793 35.821C83.7011 38.83 80.555 42.5561 78.2218 46.7851C75.8886 51.0141 74.4144 55.6626 73.8838 60.4633C73.3533 65.264 73.7769 70.1222 75.1303 74.7587C76.4837 79.3951 78.7402 83.7183 81.7701 87.4797C90.6101 97.9772 89.9655 113.539 80.3888 123.484C64.7347 140.151 65.6555 166.395 82.3226 182.049C98.9897 197.703 125.233 196.875 140.888 180.116C148.073 172.438 152.071 162.316 152.071 151.8C152.071 141.284 148.073 131.162 140.888 123.484C136.124 118.626 133.321 112.181 133.015 105.385C132.709 98.5877 134.922 91.9171 139.23 86.651C145.331 79.0295 148.157 69.2977 147.086 59.594C146.016 49.8902 141.136 41.0084 133.521 34.9001C128.917 31.401 124.036 28.9147 118.603 27.6255H110.5ZM110.5 55.2505C110.5 60.3151 114.644 64.4589 119.708 64.4589C124.773 64.4589 128.917 60.3151 128.917 55.2505C128.917 50.186 124.773 46.0422 119.708 46.0422C114.644 46.0422 110.5 50.186 110.5 55.2505ZM128.917 174.959C133.981 174.959 138.125 170.815 138.125 165.751C138.125 160.686 133.981 156.542 128.917 156.542C123.852 156.542 119.708 160.686 119.708 165.751C119.708 170.815 123.852 174.959 128.917 174.959ZM119.708 147.334C124.773 147.334 128.917 143.19 128.917 138.126C128.917 133.061 124.773 128.917 119.708 128.917C114.644 128.917 110.5 133.061 110.5 138.126C110.5 143.19 114.644 147.334 119.708 147.334ZM101.292 165.751C106.356 165.751 110.5 161.607 110.5 156.542C110.5 151.478 106.356 147.334 101.292 147.334C96.2272 147.334 92.0834 151.478 92.0834 156.542C92.0834 161.607 96.2272 165.751 101.292 165.751Z" fill="white"/>
</svg>
