<svg width="127" height="127" viewBox="0 0 127 127" fill="none" xmlns="http://www.w3.org/2000/svg">
<path d="M63.5283 17.5079V6M23.2507 52.0315V75.0472C23.2517 84.0053 26.2373 92.7078 31.7359 99.7799C37.2345 106.852 44.9327 111.89 53.6142 114.099C55.9849 114.698 58.2289 115.779 59.9551 117.505L63.5283 121.079L67.1015 117.505C68.8276 115.779 71.0717 114.698 73.4423 114.099C82.1258 111.894 89.8262 106.856 95.3255 99.7836C100.825 92.7108 103.809 84.0064 103.806 75.0472V52.0315" stroke="white" stroke-width="11.5079" stroke-linecap="round" stroke-linejoin="round"/>
<path d="M63.5282 17.5078C40.5125 17.5078 20.3737 29.0157 17.4968 40.5235C16.0986 46.1049 12.2089 51.7552 5.98889 57.7853C13.5265 57.3135 17.3356 56.1167 23.2507 52.0314C26.3578 57.325 28.9011 59.8337 34.7586 63.5393C43.1133 59.8165 46.0017 57.2215 49.1434 52.0314C52.567 57.7566 55.7662 60.2423 63.5282 63.5393C71.0659 59.9661 74.242 57.4516 77.9131 52.0314C81.5323 57.653 84.5991 60.2193 92.2979 63.5393C99.2544 60.3861 101.964 57.9752 103.806 52.0314C109.744 57.302 113.49 58.6887 121.068 57.7853C113.605 51.8243 110.952 46.1049 109.56 40.5235C106.683 29.0157 86.544 17.5078 63.5282 17.5078Z" stroke="white" stroke-width="11.5079" stroke-linecap="round" stroke-linejoin="round"/>
</svg>
