<svg width="110" height="106" viewBox="0 0 110 106" fill="none" xmlns="http://www.w3.org/2000/svg">
<path d="M58.4729 4.11711C63.72 1.40454 69.5536 0.786621 76.2565 0.786621C86.248 0.786621 95.124 4.88165 101.272 12.1658C107.393 19.4185 110.541 29.478 109.891 41.0405C108.75 61.5523 100.413 77.7911 87.5885 88.8613C74.8321 99.8791 57.944 105.519 40.0453 105.519C30.2181 105.453 20.6961 102.097 12.9982 95.9883C5.46791 89.961 0.0113525 81.1163 0.0113525 70.5226C0.0113525 63.2437 1.7918 56.9179 5.61453 51.5923C9.39537 46.3295 14.8676 42.4701 21.5391 39.5271C23.3405 38.7346 25.2379 38.0015 27.2313 37.3277C34.3164 34.9189 37.0761 33.0494 38.4219 30.3107C40.8151 25.4144 43.0197 21.267 45.1719 17.7847C49.1256 11.396 53.163 6.86633 58.4729 4.11711ZM56.2055 20.0888C65.1182 31.5779 63.0026 44.9522 54.933 52.6815C52.7129 54.8377 50.0529 56.4885 47.1353 57.5207C44.2176 58.5529 41.1113 58.9421 38.0292 58.6617C32.5569 58.1485 27.1684 55.5407 22.3927 50.7649C18.6537 52.8176 15.9673 55.1218 14.1188 57.6982C11.7937 60.9344 10.4846 65.0137 10.4846 70.5174C10.4846 77.2726 13.9303 83.3157 19.5492 87.8192C25.3888 92.4378 32.6002 94.9804 40.0453 95.0457C55.7866 95.0457 70.1454 90.0971 80.7495 80.9383C91.296 71.8266 98.4493 58.3004 99.4442 40.4592C99.9627 31.1119 97.4019 23.8068 93.2755 18.921C89.1805 14.0719 83.2683 11.2599 76.2565 11.2599C70.0092 11.2599 66.2441 11.8882 63.2749 13.4173C60.9813 14.6061 58.7505 16.5541 56.2055 20.0888ZM33.3843 46.2405C35.4056 47.4868 37.3222 48.0733 39.0137 48.2304C40.5993 48.37 42.1964 48.1637 43.6945 47.6257C45.1926 47.0878 46.5561 46.231 47.6907 45.1146C51.0736 41.8731 52.9588 36.2385 50.1991 30.1902C49.4415 31.6495 48.6508 33.2205 47.8269 34.9032C44.8787 40.9253 39.4326 43.9625 33.3843 46.2405Z" fill="white"/>
</svg>
