<svg width="146" height="126" viewBox="0 0 146 126" fill="none" xmlns="http://www.w3.org/2000/svg">
<path d="M17.5459 86.3976C35.359 81.3194 51.791 80.9666 64.9538 91.8061M17.5459 75.2203C35.359 70.142 51.791 69.7855 64.9538 80.625M17.5459 64.3394C35.359 59.2612 51.791 58.9047 64.9538 69.7442M17.5459 52.6517C35.359 47.5734 51.791 47.2169 64.9538 58.0564M17.5459 41.2529C35.359 36.1784 51.791 35.8219 64.9538 46.6614M17.5459 30.6158C35.359 25.5376 51.791 25.181 64.9538 36.0205M3.54235 9.12861L3.98149 116.567C29.838 105.645 53.0259 107.026 73.0497 123C94.2821 110.738 116.494 104.196 141.975 116.713L142.414 10.2959C120.919 1.87348 97.5137 -2.34148 73.0535 15.1189C53.6639 0.676171 28.0702 0.199505 3.54235 9.12861ZM82.3128 63.0368C82.0238 73.2833 88.4195 80.4371 98.2156 86.0145L118.784 83.5486C131.699 74.2779 131.582 65.3788 131.181 56.4873L82.3128 63.0368ZM87.7101 34.2715L82.1665 49.5474C88.6784 49.9303 95.5507 47.0665 101.35 53.8562L105.291 43.407C96.1625 44.1727 92.2591 38.1674 87.7101 34.2715Z" stroke="white" stroke-width="5.29324" stroke-linecap="round" stroke-linejoin="round"/>
</svg>
