<svg width="117" height="122" viewBox="0 0 117 122" fill="none" xmlns="http://www.w3.org/2000/svg">
<path d="M89.705 12.7868L103.45 26.2126L68.0958 54.343L61.7025 47.9497L89.6411 12.7868H89.705ZM89.705 0.000279115C87.8157 -0.0122032 85.9472 0.394129 84.2338 1.19005C82.5203 1.98598 81.0045 3.15171 79.7954 4.60343L44.4407 48.9087L67.0729 71.5408L111.442 36.2501C117.196 31.3912 117.644 22.6324 112.273 17.2621L98.7834 3.7723C96.2261 1.215 92.9655 0.000279115 89.705 0.000279115ZM39.9654 53.4479L35.4262 57.9871C34.2275 59.2067 33.5558 60.8483 33.5558 62.5583C33.5558 64.2683 34.2275 65.9099 35.4262 67.1295L48.916 80.5553C50.2586 81.834 51.8569 82.4094 53.5191 82.4094C55.1814 82.4094 56.7797 81.834 58.0584 80.5553L62.5336 76.0801L39.9654 53.4479ZM20.1463 83.1126C16.63 83.1126 13.7531 85.9896 13.7531 89.5059C13.7531 93.0222 16.63 95.8992 20.1463 95.8992C23.6626 95.8992 26.5396 93.0222 26.5396 89.5059C26.5396 85.9896 23.6626 83.1126 20.1463 83.1126ZM39.3261 89.5059C35.8098 89.5059 32.9328 92.3829 32.9328 95.8992C32.9328 99.4155 35.8098 102.292 39.3261 102.292C42.8424 102.292 45.7194 99.4155 45.7194 95.8992C45.7194 92.3829 42.8424 89.5059 39.3261 89.5059ZM7.35981 102.292C3.84352 102.292 0.966553 105.169 0.966553 108.686C0.966553 112.202 3.84352 115.079 7.35981 115.079C10.8761 115.079 13.7531 112.202 13.7531 108.686C13.7531 105.169 10.8761 102.292 7.35981 102.292ZM26.5396 108.686C23.0233 108.686 20.1463 111.563 20.1463 115.079C20.1463 118.595 23.0233 121.472 26.5396 121.472C30.0559 121.472 32.9328 118.595 32.9328 115.079C32.9328 111.563 30.0559 108.686 26.5396 108.686Z" fill="white"/>
</svg>
