<svg width="100" height="99" viewBox="0 0 100 99" fill="none" xmlns="http://www.w3.org/2000/svg">
<path d="M77.046 3.88499C77.046 2.90232 76.6556 1.95989 75.9608 1.26503C75.2659 0.570176 74.3235 0.17981 73.3408 0.17981C72.3581 0.17981 71.4157 0.570176 70.7208 1.26503C70.026 1.95989 69.6356 2.90232 69.6356 3.88499V23.7151C59.6267 17.0162 45.5964 19.3677 38.5516 29.7225L2.22597 83.1068C-0.520803 87.1479 0.00286318 92.5426 3.48574 95.9909C5.20673 97.6836 7.46409 98.7231 9.86904 98.9305C12.274 99.1379 14.676 98.5002 16.6614 97.1272L69.9666 60.2285C74.7441 56.9464 78.0335 51.9117 79.1204 46.2183C80.2073 40.5249 79.0038 34.6325 75.7714 29.8213H95.567C96.5496 29.8213 97.4921 29.4309 98.1869 28.7361C98.8818 28.0412 99.2722 27.0988 99.2722 26.1161C99.2722 25.1334 98.8818 24.191 98.1869 23.4961C97.4921 22.8013 96.5496 22.4109 95.567 22.4109H82.2777L98.1853 6.50332C98.8398 5.80094 99.1961 4.87195 99.1792 3.91205C99.1622 2.95216 98.7734 2.03631 98.0945 1.35746C97.4157 0.678603 96.4998 0.289746 95.5399 0.27281C94.58 0.255874 93.651 0.61218 92.9486 1.26666L77.046 17.1693V3.88499ZM44.7368 33.8377C49.9833 26.126 61.0396 25.0638 67.6892 31.6393C69.2304 33.158 70.4167 34.9988 71.163 37.0298C71.9093 39.0609 72.1972 41.2318 72.006 43.3871C71.8148 45.5425 71.1492 47.6288 70.057 49.4967C68.9648 51.3646 67.4729 52.9679 65.6884 54.1915L12.393 91.0951C11.8447 91.4733 11.1817 91.6486 10.5181 91.5908C9.85456 91.5331 9.23182 91.2461 8.75698 90.779C8.29153 90.3207 8.00191 89.7134 7.9387 89.0632C7.87549 88.4131 8.04271 87.7614 8.41116 87.222L44.7368 33.8377Z" fill="white"/>
</svg>
